<svg width="35" height="35" viewBox="0 0 35 35" fill="none" xmlns="http://www.w3.org/2000/svg">
<path d="M17.4999 33.9058C17.4999 24.5542 26.414 20.1245 27.2343 12.1948C27.4351 10.8476 27.354 9.47338 26.9963 8.15908C26.6386 6.84478 26.012 5.61902 25.1562 4.55934C24.3004 3.49965 23.234 2.62911 22.0244 2.00279C20.8149 1.37646 19.4885 1.00797 18.1292 0.920644C16.7699 0.833314 15.4072 1.02904 14.1275 1.49544C12.8477 1.96184 11.6786 2.68876 10.6943 3.63022C9.70989 4.57167 8.93161 5.70718 8.40867 6.9649C7.88573 8.22263 7.6295 9.57519 7.65619 10.937C7.66756 11.34 7.70409 11.7418 7.76556 12.1402C8.58587 20.1245 17.4999 24.5542 17.4999 33.9058Z" fill="#0062CE"/>
</svg>
